<svg fill="#4d4d56" xmlns="http://www.w3.org/2000/svg" xmlns:xlink="http://www.w3.org/1999/xlink" width="12" height="20" viewBox="0.271 0.204 10.946 19.592"><path paint-order="stroke fill markers" fill-rule="evenodd" d="M3.31 19.796c-1.676 0-3.04-1.373-3.04-3.062 0-1.687 1.364-3.06 3.04-3.06.496 0 .974.119 1.42.354V2.653a.82.82 0 0 1 .036-.229l.002-.008a.731.731 0 0 1 .11-.233l.01-.012.01-.012a.829.829 0 0 1 .141-.143l.014-.011.015-.013a.706.706 0 0 1 .198-.102l.01-.007.009-.006L10.149.245a.816.816 0 0 1 .73.114c.211.15.337.398.337.661v2.074a.812.812 0 0 1-.554.775L6.35 5.318v11.416c0 1.689-1.364 3.062-3.04 3.062zm0-4.48c-.789 0-1.43.637-1.43 1.42 0 .783.641 1.42 1.43 1.42.788 0 1.43-.637 1.43-1.42 0-.783-.642-1.42-1.43-1.42z"/></svg></svg><svg width="7" height="7" xmlns="http://www.w3.org/2000/svg" xmlns:xlink="http://www.w3.org/1999/xlink" xmlns:svgjs="http://svgjs.com/svgjs" viewBox="0.024 0 6.953 7" fill="#7a8fa6" x="856" y="134"><svg xmlns="http://www.w3.org/2000/svg" width="7" height="7" viewBox="0.999 0.559 5.676 5.714"><path paint-order="stroke fill markers" fill-rule="evenodd" d="M6.067 2.804a.61.61 0 0 1 .607.612.61.61 0 0 1-.607.612H4.445v1.633a.61.61 0 0 1-.608.612.61.61 0 0 1-.608-.612V4.028H1.607a.61.61 0 0 1-.608-.612.61.61 0 0 1 .608-.612h1.622V1.171A.61.61 0 0 1 3.837.56a.61.61 0 0 1 .608.612v1.633h1.622z"/></svg>