<svg   fill="#4d4d56"  xmlns="http://www.w3.org/2000/svg" width="20" height="10" viewBox="0.272 0.28 19.597 9.263"><path paint-order="stroke fill markers" fill-rule="evenodd" d="M19.053.28a.827.827 0 0 1 .816.833l-.003 2.596c-.001 2.057-1.65 3.727-3.673 3.727H3.063l.678.689a.84.84 0 0 1 0 1.173.81.81 0 0 1-.578.245.81.81 0 0 1-.577-.245L.54 7.221a.833.833 0 0 1 0-1.223L2.586 3.92a.809.809 0 0 1 1.155 0 .84.84 0 0 1 0 1.174l-.677.684h13.129c1.124 0 2.04-.929 2.04-2.07l.003-2.599c0-.456.366-.83.816-.83h.001z"/></svg>