<svg xmlns="http://www.w3.org/2000/svg" fill="#4d4d56" width="20" height="11" viewBox="0.272 0.798 19.597 9.257"><path paint-order="stroke fill markers" fill-rule="evenodd" d="M1.087 10.055a.823.823 0 0 1-.815-.83l.003-2.6c.001-2.052 1.65-3.727 3.673-3.727h13.129l-.676-.684a.838.838 0 0 1 0-1.173.807.807 0 0 1 1.154 0L19.6 3.118a.834.834 0 0 1 0 1.223l-2.046 2.077a.805.805 0 0 1-.577.24.804.804 0 0 1-.577-.24.839.839 0 0 1 0-1.173l.676-.688H3.947c-1.124 0-2.04.928-2.04 2.073l-.002 2.595c0 .46-.366.83-.817.83z"/></svg>