<svg width="15" height="21" xmlns="http://www.w3.org/2000/svg" xmlns:xlink="http://www.w3.org/1999/xlink" xmlns:svgjs="http://svgjs.com/svgjs" viewBox="0 0.057 15 20.886" fill="#ff1aa8"><svg xmlns="http://www.w3.org/2000/svg" width="15" height="21" viewBox="0 1 14.364 20"><path paint-order="stroke fill markers" fill-rule="evenodd" d="M6.097 21a8.078 8.078 0 0 1-3.146-.63h-.013a8.128 8.128 0 0 1-2.674-1.792.845.845 0 0 1 0-1.227.837.837 0 0 1 .605-.25c.232 0 .448.089.61.25a6.4 6.4 0 0 0 2.12 1.428v.006a6.668 6.668 0 0 0 5.002-.006 6.397 6.397 0 0 0 2.082-1.378l.038-.05a6.39 6.39 0 0 0 1.415-2.12l.007.006a6.44 6.44 0 0 0 .491-2.498c0-.853-.161-1.683-.479-2.466l-.019-.032a6.374 6.374 0 0 0-1.415-2.12 6.5 6.5 0 0 0-3.756-1.862v2.554c0 .472-.39.856-.868.856a.834.834 0 0 1-.61-.246L3.75 7.687 2.02 5.95a.84.84 0 0 1-.26-.61.84.84 0 0 1 .26-.61l.012-.013L3.75 2.993 5.486 1.25A.87.87 0 0 1 6.1 1c.231 0 .449.089.613.25a.84.84 0 0 1 .252.604v2.655a8.576 8.576 0 0 1 2.29.591 8.53 8.53 0 0 1 2.693 1.794 8.2 8.2 0 0 1 1.787 2.693l.019.031c.404.997.61 2.047.61 3.12a8.132 8.132 0 0 1-.63 3.166 8.201 8.201 0 0 1-1.786 2.674l-.05.05a8.198 8.198 0 0 1-2.643 1.743A8.118 8.118 0 0 1 6.097 21zM5.24 3.956l-.258.258-1.14 1.126 1.14 1.126.258.258V5.359v-.02-.018-1.365z"/></svg></svg>