<svg fill="#4d4d56"  xmlns="http://www.w3.org/2000/svg" width="12" height="15" viewBox="0.272 0.797 11.428 13.999"><path paint-order="stroke fill markers" fill-rule="evenodd" d="M10.884 14.796c-.152 0-.3-.04-.427-.117l-5.11-2.995h-4.26c-.449 0-.815-.349-.815-.777V4.685c0-.43.366-.779.816-.779h4.26L10.456.912a.845.845 0 0 1 .826-.015.769.769 0 0 1 .417.677v12.444c0 .28-.16.54-.417.68a.845.845 0 0 1-.399.098zm-5.306-4.667c.154 0 .302.04.428.117l4.062 2.38v-9.66l-4.062 2.38a.822.822 0 0 1-.428.117H1.905v4.666h3.673z"/></svg>