<svg fill="#4d4d56"  xmlns="http://www.w3.org/2000/svg" width="17" height="15" viewBox="1 0.556 16 14.049"><path paint-order="stroke fill markers" fill-rule="evenodd" d="M1 2.897c0-.621.253-1.216.702-1.655C2.152.802 2.763.556 3.4.556h3.144c.395 0 .784.096 1.132.277.348.181.645.445.864.766l.65.951a.808.808 0 0 0 .666.347H14.6c.636 0 1.247.247 1.697.686.45.44.703 1.034.703 1.656v7.024c0 .622-.253 1.217-.703 1.656a2.43 2.43 0 0 1-1.697.686H3.4a2.432 2.432 0 0 1-1.698-.686A2.313 2.313 0 0 1 1 12.263V2.897zM9.8 6.8a.773.773 0 0 0-.234-.552A.81.81 0 0 0 9 6.019a.81.81 0 0 0-.566.229.772.772 0 0 0-.234.552v2.799l-1.035-1.01a.811.811 0 0 0-1.121.01.769.769 0 0 0-.01 1.095l2.4 2.34a.81.81 0 0 0 .566.23.808.808 0 0 0 .565-.23l2.4-2.34a.77.77 0 0 0-.01-1.095.812.812 0 0 0-1.121-.01L9.8 9.6v-2.8z"/></svg>