<svg fill="#4d4d56"  xmlns="http://www.w3.org/2000/svg" width="17" height="15" viewBox="0.999 0.998 15.998 13.973"><path paint-order="stroke fill markers" fill-rule="evenodd" d="M16.61 3.861a4.706 4.706 0 0 0-1.053-1.495 4.91 4.91 0 0 0-1.555-1.002 5.03 5.03 0 0 0-1.897-.366A5.036 5.036 0 0 0 9 2.065 5.036 5.036 0 0 0 5.894.998c-.657 0-1.294.122-1.896.366a4.903 4.903 0 0 0-1.556 1.002 4.657 4.657 0 0 0-1.053 1.495 4.53 4.53 0 0 0-.39 1.84c0 .601.126 1.227.376 1.865.21.533.51 1.085.893 1.643.608.883 1.443 1.803 2.48 2.737a27.548 27.548 0 0 0 3.492 2.66l.44.274c.194.12.444.12.638 0l.44-.275a27.982 27.982 0 0 0 3.492-2.659c1.037-.934 1.872-1.854 2.48-2.737.383-.558.685-1.11.892-1.643.25-.638.376-1.264.376-1.865a4.496 4.496 0 0 0-.387-1.84z"/></svg>