<svg fill="#4d4d56"  xmlns="http://www.w3.org/2000/svg" width="21" height="18" viewBox="1 0 20 18"><path paint-order="stroke fill markers" fill-rule="evenodd" d="M11 18c-.345 0-.683-.095-.978-.274C2.172 12.915 1 7.964 1 5.44 1 2.44 3.468 0 6.5 0c1.94 0 3.578 1.28 4.5 2.194C11.922 1.28 13.56 0 15.5 0 18.532 0 21 2.44 21 5.44c0 2.524-1.172 7.476-9.017 12.284-.3.181-.639.276-.983.276zM6.5 2C4.57 2 3 3.543 3 5.44c0 2.099 1.04 6.254 8 10.54 6.959-4.286 8-8.44 8-10.54C19 3.543 17.43 2 15.5 2c-1.615 0-3.22 1.655-3.701 2.293A1 1 0 0 1 11 4.69h-.002a1.003 1.003 0 0 1-.8-.399C9.719 3.655 8.116 2 6.5 2z"/></svg>