<svg width="20" height="18" xmlns="http://www.w3.org/2000/svg" xmlns:xlink="http://www.w3.org/1999/xlink" xmlns:svgjs="http://svgjs.com/svgjs" viewBox="0 0.638 20 16.725" fill="#7e7e7e"><svg xmlns="http://www.w3.org/2000/svg" width="20" height="18" viewBox="0 1 19.134 16"><path paint-order="stroke fill markers" fill-rule="evenodd" d="M12.783 17a.707.707 0 0 1-.236-.04.852.852 0 0 1-.078-.046c-.03-.018-.057-.036-.087-.049-4.296-2.906-4.82-3.26-6.371-4.313l-.007-.004-5.7-3.864a.692.692 0 0 1-.185-.958.688.688 0 0 1 .33-.25l17.763-6.434A.707.707 0 0 1 18.453 1c.29 0 .54.177.638.452a.63.63 0 0 1-.016.494l-5.64 14.614a.698.698 0 0 1-.652.44zM16.95 3.663l-9.564 8.16 5.086 3.44 4.478-11.6zm-.745-.45L2.185 8.306l4.487 3.05 9.533-8.141z"/></svg></svg>