<svg fill="#4d4d56"  xmlns="http://www.w3.org/2000/svg" width="17" height="16" viewBox="0.995 0.379 15.938 14.943"><path paint-order="stroke fill markers" fill-rule="evenodd" d="M3.885 15.322c-.8 0-1.49-.3-2.023-.849-.534-.574-.867-1.309-.867-2.136V3.363c0-.827.333-1.538.867-2.112C2.395.699 3.085.379 3.885.379h4.357v1.882H3.885c-.6 0-1.068.482-1.068 1.102v8.974c0 .62.467 1.125 1.068 1.125h4.357v1.86H3.885zm7.025-1.515a.633.633 0 0 1-.355-.573V10.41H6.53a.77.77 0 0 1-.756-.757V6.072a.77.77 0 0 1 .756-.757h4.024V2.468c0-.552.667-.758.978-.414l5.224 5.372c.223.23.245.643 0 .85l-5.224 5.393a.526.526 0 0 1-.4.16c-.045 0-.134 0-.223-.022z"/></svg>