<svg width="26" height="21" xmlns="http://www.w3.org/2000/svg" xmlns:xlink="http://www.w3.org/1999/xlink" xmlns:svgjs="http://svgjs.com/svgjs" viewBox="0.4 0 25.201 21" fill="#ff1aa8"><svg xmlns="http://www.w3.org/2000/svg" width="26" height="21" viewBox="1 0 24.001 20"><path paint-order="stroke fill markers" fill-rule="evenodd" d="M21.015 20a.63.63 0 0 1-.445-.187.686.686 0 0 1-.17-.494v-2.351h-1.176-1.323c-1.211 0-2.465-.642-3.83-1.963-1.22-1.179-2.418-2.78-3.576-4.329l-.037-.05-.021-.029c-2.003-2.704-4.075-5.5-5.779-5.5H3.335 2.01A1.011 1.011 0 0 1 1 4.066c0-.582.444-1.038 1.011-1.038H4.658c2.713 0 5.11 3.223 7.428 6.34 2.01 2.708 4.089 5.507 5.815 5.507h2.498v-2.39a.62.62 0 0 1 .61-.628c.162 0 .322.063.439.174l1.695 1.73 1.673 1.72a.634.634 0 0 1 0 .896l-1.673 1.7-1.695 1.737a.595.595 0 0 1-.433.187zm.61-6.013v3.868c.707-.712 1.307-1.326 1.89-1.934l-1.242-1.274-.647-.66zm-16.967 2.98H3.335 2.01c-.567 0-1.011-.46-1.011-1.046 0-.577.454-1.047 1.011-1.047H4.658c1.413 0 3.097-1.936 4.707-4.027l.29.402c.18.234.361.48.536.716.143.194.29.394.438.588-1.789 2.293-3.75 4.415-5.97 4.415zm8.536-7.827l-.297-.402c-.28-.384-.567-.766-.845-1.135l-.122-.162c1.783-2.293 3.74-4.414 5.971-4.414h2.498V.615a.613.613 0 0 1 1.049-.433l1.695 1.714 1.673 1.722a.613.613 0 0 1 .184.448.594.594 0 0 1-.184.432v.007l-1.673 1.722-1.695 1.715a.595.595 0 0 1-.433.187.63.63 0 0 1-.445-.187.632.632 0 0 1-.17-.471V5.098h-1.176-1.323c-1.416 0-3.099 1.942-4.706 4.041l-.001.001zm8.432-7v3.845c.578-.583 1.163-1.18 1.728-1.757l.16-.163c-.602-.62-1.237-1.27-1.888-1.926z"/></svg></svg>