<svg fill="#4d4d56"  xmlns="http://www.w3.org/2000/svg" width="17" height="17" viewBox="0.062 0.998 15.939 15.937"><path paint-order="stroke fill markers" fill-rule="evenodd" d="M16 1.589v10.323c.002.593-.21 1.17-.604 1.638a2.9 2.9 0 0 1-1.566.945 3.08 3.08 0 0 1-1.863-.146 2.8 2.8 0 0 1-1.37-1.178 2.49 2.49 0 0 1-.298-1.71c.11-.583.426-1.117.902-1.515a2.986 2.986 0 0 1 1.718-.681 3.045 3.045 0 0 1 1.808.442V5.293l-8.92 2.065v6.914c0 .592-.213 1.17-.606 1.637-.394.468-.945.801-1.566.946a3.079 3.079 0 0 1-1.863-.147 2.8 2.8 0 0 1-1.37-1.177 2.486 2.486 0 0 1-.298-1.71c.11-.584.427-1.117.901-1.515a2.987 2.987 0 0 1 1.72-.682 3.045 3.045 0 0 1 1.807.442V3.948c0-.131.048-.26.135-.363a.645.645 0 0 1 .348-.21L15.21 1.017a.678.678 0 0 1 .546.108.598.598 0 0 1 .18.206c.043.08.065.17.065.259z"/></svg>