<svg width="17" height="17" xmlns="http://www.w3.org/2000/svg" xmlns:xlink="http://www.w3.org/1999/xlink" xmlns:svgjs="http://svgjs.com/svgjs" fill="#7e7e7e"><svg xmlns="http://www.w3.org/2000/svg" width="17" height="17" viewBox="0 0 16 16"><path paint-order="stroke fill markers" fill-rule="evenodd" d="M8.003 16a7.977 7.977 0 0 1-5.659-2.352A7.935 7.935 0 0 1 0 8.003c0-2.13.832-4.14 2.344-5.659l.046-.05A7.984 7.984 0 0 1 8.003 0c2.13 0 4.14.833 5.659 2.344A7.972 7.972 0 0 1 16 8.003c0 2.133-.83 4.138-2.338 5.645l-.052.046A7.892 7.892 0 0 1 8.003 16zm0-14.223a6.132 6.132 0 0 0-4.354 1.789l-.045.032a6.236 6.236 0 0 0-1.827 4.405c0 1.623.666 3.224 1.827 4.393a6.205 6.205 0 0 0 4.399 1.828 6.136 6.136 0 0 0 4.354-1.79l.045-.038a6.173 6.173 0 0 0 1.821-4.393 6.21 6.21 0 0 0-1.821-4.405 6.203 6.203 0 0 0-4.4-1.821zm0 10.974a.89.89 0 0 1-.891-.885V8.888H4.14a.89.89 0 0 1 0-1.777h2.97V4.135a.889.889 0 0 1 1.777 0v2.978h2.971c.495 0 .898.4.898.89a.893.893 0 0 1-.898.886H8.89v2.978a.887.887 0 0 1-.886.885z"/></svg></svg>