<svg fill="#4d4d56" xmlns="http://www.w3.org/2000/svg" xmlns:xlink="http://www.w3.org/1999/xlink" width="20" height="11" viewBox="0.272 0.798 19.597 9.257"><path paint-order="stroke fill markers" fill-rule="evenodd" d="M1.087 10.055a.823.823 0 0 1-.815-.83l.003-2.6c.001-2.052 1.65-3.727 3.673-3.727h13.129l-.676-.684a.838.838 0 0 1 0-1.173.807.807 0 0 1 1.154 0L19.6 3.118a.834.834 0 0 1 0 1.223l-2.046 2.077a.805.805 0 0 1-.577.24.804.804 0 0 1-.577-.24.839.839 0 0 1 0-1.173l.676-.688H3.947c-1.124 0-2.04.928-2.04 2.073l-.002 2.595c0 .46-.366.83-.817.83z"/></svg></svg><svg width="20" height="10" xmlns="http://www.w3.org/2000/svg" xmlns:xlink="http://www.w3.org/1999/xlink" xmlns:svgjs="http://svgjs.com/svgjs" viewBox="0 0.273 20 9.454" fill="#7a8fa6" x="913" y="135"><svg xmlns="http://www.w3.org/2000/svg" xmlns:xlink="http://www.w3.org/1999/xlink" width="20" height="10" viewBox="0.272 0.28 19.597 9.263"><path paint-order="stroke fill markers" fill-rule="evenodd" d="M19.053.28a.827.827 0 0 1 .816.833l-.003 2.596c-.001 2.057-1.65 3.727-3.673 3.727H3.063l.678.689a.84.84 0 0 1 0 1.173.81.81 0 0 1-.578.245.81.81 0 0 1-.577-.245L.54 7.221a.833.833 0 0 1 0-1.223L2.586 3.92a.809.809 0 0 1 1.155 0 .84.84 0 0 1 0 1.174l-.677.684h13.129c1.124 0 2.04-.929 2.04-2.07l.003-2.599c0-.456.366-.83.816-.83h.001z"/></svg></svg><svg width="4" height="6" xmlns="http://www.w3.org/2000/svg" xmlns:xlink="http://www.w3.org/1999/xlink" xmlns:svgjs="http://svgjs.com/svgjs" viewBox="0.372 0 3.256 6" fill="#7a8fa6" x="921" y="133"><svg xmlns="http://www.w3.org/2000/svg" width="4" height="6" viewBox="0.581 0.424 2.979 5.488"><path paint-order="stroke fill markers" fill-rule="evenodd" d="M2.947 5.912a.617.617 0 0 1-.612-.622V2.475l-.725.684a.602.602 0 0 1-.865-.033.63.63 0 0 1 .03-.88L2.53.589a.608.608 0 0 1 .662-.112c.223.1.368.324.368.568V5.29a.617.617 0 0 1-.613.622z"/></svg>