<svg fill="#4d4d56"  xmlns="http://www.w3.org/2000/svg" width="20" height="18" viewBox="0.02 0 19.845 17.003"><path paint-order="stroke fill markers" fill-rule="evenodd" d="M18.88 17.003H1.012a.993.993 0 0 1-.95-.71 1.004 1.004 0 0 1 .4-1.122c.013-.01 2.536-1.9 2.536-8.17 0-1.87.723-3.628 2.035-4.95A6.878 6.878 0 0 1 9.946 0c1.856 0 3.6.727 4.914 2.05A6.982 6.982 0 0 1 16.895 7c0 6.27 2.523 8.16 2.548 8.178.352.253.507.71.375 1.125a.99.99 0 0 1-.938.699zm-15.743-2h13.618c-.898-1.483-1.846-3.997-1.846-8.002a4.986 4.986 0 0 0-1.453-3.536A4.913 4.913 0 0 0 9.946 2c-1.325 0-2.57.52-3.509 1.465A4.989 4.989 0 0 0 4.983 7c0 4.005-.948 6.519-1.846 8.002z"/></svg>