<svg fill="#4d4d56"  xmlns="http://www.w3.org/2000/svg" width="17" height="17" viewBox="0.992 1 15.914 16"><path paint-order="stroke fill markers" fill-rule="evenodd" d="M15.911 17a.989.989 0 0 1-.703-.293l-3.086-3.103A6.9 6.9 0 0 1 7.954 15C4.115 15 .992 11.86.992 8s3.123-7 6.962-7c3.84 0 6.962 3.14 6.962 7 0 1.57-.516 3.02-1.388 4.19l3.086 3.103c.389.39.389 1.023 0 1.414a.989.989 0 0 1-.703.293zM7.954 3C5.212 3 2.981 5.243 2.981 8s2.231 5 4.973 5a4.933 4.933 0 0 0 2.984-1.002.996.996 0 0 1 .992-.998 4.994 4.994 0 0 0 .997-3c0-2.757-2.23-5-4.973-5z"/></svg>