<svg fill="#4d4d56"  xmlns="http://www.w3.org/2000/svg" width="16" height="16" viewBox="0.049 0 15.893 15.997"><path paint-order="stroke fill markers" fill-rule="evenodd" d="M5.306 15.989a1.773 1.773 0 0 1-1.073-.343L2.588 14.39a1.892 1.892 0 0 1-.735-1.238 1.908 1.908 0 0 1 .345-1.4 1.647 1.647 0 0 0 .184-1.487l-.049-.128a1.455 1.455 0 0 0-.89-.975h-.127A1.861 1.861 0 0 1 .248 8.23 1.88 1.88 0 0 1 .14 6.81l.65-2.078a1.751 1.751 0 0 1 .89-1.064 1.684 1.684 0 0 1 1.336-.096c.237.08.489.101.735.061.247-.04.48-.14.679-.293l.103-.08a1.54 1.54 0 0 0 .427-.536c.1-.21.153-.439.154-.67v-.193A1.86 1.86 0 0 1 5.643.555c.341-.35.805-.55 1.292-.555H8.96a1.789 1.789 0 0 1 1.271.536c.35.358.544.84.54 1.343v.224a1.404 1.404 0 0 0 .548 1.143l.088.064a1.376 1.376 0 0 0 1.263.208l.271-.089c.229-.075.47-.105.711-.084.24.019.474.087.688.2a1.808 1.808 0 0 1 .889 1.092l.628 2.014a1.9 1.9 0 0 1-.117 1.411c-.22.438-.6.772-1.06.932l-.158.057a1.516 1.516 0 0 0-.961 1.022 1.62 1.62 0 0 0 .19 1.32l.207.303a1.916 1.916 0 0 1-.398 2.583l-1.612 1.216a1.77 1.77 0 0 1-2.559-.425l-.095-.136a1.401 1.401 0 0 0-1.192-.624 1.426 1.426 0 0 0-1.137.617l-.182.263a1.782 1.782 0 0 1-1.168.798 1.365 1.365 0 0 1-.31 0zM7.456 5.25a2.784 2.784 0 0 0-2.185 2.199 2.798 2.798 0 0 0 1.183 2.873 2.767 2.767 0 0 0 3.512-.349 2.809 2.809 0 0 0 .345-3.533 2.772 2.772 0 0 0-2.854-1.19zM6.81 7.99c0-.663.532-1.2 1.19-1.2.657 0 1.19.537 1.19 1.2 0 .663-.533 1.2-1.19 1.2-.658 0-1.19-.537-1.19-1.2z"/></svg>