<svg width="21" height="21" xmlns="http://www.w3.org/2000/svg" xmlns:xlink="http://www.w3.org/1999/xlink" xmlns:svgjs="http://svgjs.com/svgjs" fill="#787887"><svg fill="#4d4d56"  xmlns="http://www.w3.org/2000/svg" width="21" height="21" viewBox="0.816 0.997 19.973 19.973"><path paint-order="stroke fill markers" fill-rule="evenodd" d="M16.567 15.314A8.793 8.793 0 0 0 18.48 9.83c0-4.87-3.962-8.832-8.831-8.832C4.778.997.816 4.96.816 9.83c0 4.87 3.962 8.832 8.833 8.832 2.07 0 3.977-.716 5.484-1.914l4.223 4.223 1.433-1.433-4.222-4.223zm-6.918 1.32A6.814 6.814 0 0 1 2.843 9.83 6.813 6.813 0 0 1 9.65 3.024a6.812 6.812 0 0 1 6.804 6.805 6.813 6.813 0 0 1-6.804 6.805z"/></svg>