<svg  width="12" height="15" xmlns="http://www.w3.org/2000/svg" xmlns:xlink="http://www.w3.org/1999/xlink" xmlns:svgjs="http://svgjs.com/svgjs" viewBox="0 0.15 12 14.699" fill="#7a8fa6" x="983" y="128"><svg xmlns="http://www.w3.org/2000/svg" xmlns:xlink="http://www.w3.org/1999/xlink" width="12" height="15" viewBox="0.272 0.797 11.428 13.999"><path paint-order="stroke fill markers" fill-rule="evenodd" d="M10.884 14.796c-.152 0-.3-.04-.427-.117l-5.11-2.995h-4.26c-.449 0-.815-.349-.815-.777V4.685c0-.43.366-.779.816-.779h4.26L10.456.912a.845.845 0 0 1 .826-.015.769.769 0 0 1 .417.677v12.444c0 .28-.16.54-.417.68a.845.845 0 0 1-.399.098zm-5.306-4.667c.154 0 .302.04.428.117l4.062 2.38v-9.66l-4.062 2.38a.822.822 0 0 1-.428.117H1.905v4.666h3.673z"/></svg></svg><svg width="4" height="11" xmlns="http://www.w3.org/2000/svg" xmlns:xlink="http://www.w3.org/1999/xlink" xmlns:svgjs="http://svgjs.com/svgjs" viewBox="0.253 0 3.493 11" fill="#7a8fa6" x="999" y="130"><svg xmlns="http://www.w3.org/2000/svg" xmlns:xlink="http://www.w3.org/1999/xlink" width="4" height="11" viewBox="0.786 0.949 3.078 9.692"><path paint-order="stroke fill markers" fill-rule="evenodd" d="M1.398 10.641a.632.632 0 0 0 .434-.17c1.31-1.25 2.032-2.91 2.032-4.675 0-1.766-.722-3.426-2.032-4.675a.63.63 0 0 0-.866 0 .563.563 0 0 0 0 .825c1.078 1.03 1.673 2.395 1.673 3.85 0 1.454-.595 2.823-1.673 3.85a.563.563 0 0 0 0 .824c.119.113.276.171.432.171z"/></svg></svg><svg width="4" height="7" xmlns="http://www.w3.org/2000/svg" xmlns:xlink="http://www.w3.org/1999/xlink" xmlns:svgjs="http://svgjs.com/svgjs" viewBox="0.657 0 2.685 7" fill="#7a8fa6" x="997" y="132"><svg xmlns="http://www.w3.org/2000/svg" width="4" height="7" viewBox="0.766 0.874 2.241 5.842"><path paint-order="stroke fill markers" fill-rule="evenodd" d="M1.378 6.716a.631.631 0 0 0 .433-.17 3.774 3.774 0 0 0 1.196-2.75 3.774 3.774 0 0 0-1.196-2.75.63.63 0 0 0-.866 0 .563.563 0 0 0 0 .825 2.64 2.64 0 0 1 .837 1.925A2.64 2.64 0 0 1 .945 5.72a.563.563 0 0 0 0 .824c.12.113.276.171.433.171z"/></svg></svg>